<svg xmlns="http://www.w3.org/2000/svg" viewBox="0 0 720 440" width="720" height="440" font-family="ui-sans-serif,system-ui,-apple-system,Segoe UI,sans-serif">
<rect width="720" height="440" fill="#0f0f0f"/>
<text x="360" y="18" fill="#d4d4d4" font-size="13" font-weight="600" text-anchor="middle">Node-degree distribution · vercel-monorepo</text>
<line x1="64" y1="384" x2="696" y2="384" stroke="#3a3a3a" stroke-width="1"/>
<line x1="64" y1="28" x2="64" y2="384" stroke="#3a3a3a" stroke-width="1"/>
<line x1="60" y1="384" x2="64" y2="384" stroke="#3a3a3a"/>
<text x="56" y="388" fill="#8a8a8a" font-size="10" text-anchor="end">0</text>
<line x1="64" y1="384" x2="696" y2="384" stroke="#3a3a3a" stroke-opacity="0.3"/>
<line x1="60" y1="312.8" x2="64" y2="312.8" stroke="#3a3a3a"/>
<text x="56" y="316.8" fill="#8a8a8a" font-size="10" text-anchor="end">600</text>
<line x1="64" y1="312.8" x2="696" y2="312.8" stroke="#3a3a3a" stroke-opacity="0.3"/>
<line x1="60" y1="241.6" x2="64" y2="241.6" stroke="#3a3a3a"/>
<text x="56" y="245.6" fill="#8a8a8a" font-size="10" text-anchor="end">1200</text>
<line x1="64" y1="241.6" x2="696" y2="241.6" stroke="#3a3a3a" stroke-opacity="0.3"/>
<line x1="60" y1="170.4" x2="64" y2="170.4" stroke="#3a3a3a"/>
<text x="56" y="174.4" fill="#8a8a8a" font-size="10" text-anchor="end">1800</text>
<line x1="64" y1="170.4" x2="696" y2="170.4" stroke="#3a3a3a" stroke-opacity="0.3"/>
<line x1="60" y1="99.19999999999999" x2="64" y2="99.19999999999999" stroke="#3a3a3a"/>
<text x="56" y="103.19999999999999" fill="#8a8a8a" font-size="10" text-anchor="end">2400</text>
<line x1="64" y1="99.19999999999999" x2="696" y2="99.19999999999999" stroke="#3a3a3a" stroke-opacity="0.3"/>
<line x1="60" y1="28" x2="64" y2="28" stroke="#3a3a3a"/>
<text x="56" y="32" fill="#8a8a8a" font-size="10" text-anchor="end">3000</text>
<line x1="64" y1="28" x2="696" y2="28" stroke="#3a3a3a" stroke-opacity="0.3"/>
<rect x="65" y="29.779999999999973" width="61.2" height="354.22" fill="#dc6555" fill-opacity="0.85"/>
<text x="95.6" y="25.779999999999973" fill="#8a8a8a" font-size="9" text-anchor="middle">2985</text>
<rect x="128.2" y="319.32666666666665" width="61.2" height="64.67333333333335" fill="#dc6555" fill-opacity="0.85"/>
<text x="158.8" y="315.32666666666665" fill="#8a8a8a" font-size="9" text-anchor="middle">545</text>
<rect x="191.4" y="314.4613333333333" width="61.2" height="69.5386666666667" fill="#dc6555" fill-opacity="0.85"/>
<text x="222" y="310.4613333333333" fill="#8a8a8a" font-size="9" text-anchor="middle">586</text>
<rect x="254.60000000000002" y="307.57866666666666" width="61.2" height="76.42133333333334" fill="#dc6555" fill-opacity="0.85"/>
<text x="285.20000000000005" y="303.57866666666666" fill="#8a8a8a" font-size="9" text-anchor="middle">644</text>
<rect x="317.8" y="344.128" width="61.2" height="39.872000000000014" fill="#dc6555" fill-opacity="0.85"/>
<text x="348.40000000000003" y="340.128" fill="#8a8a8a" font-size="9" text-anchor="middle">336</text>
<rect x="381" y="368.5733333333333" width="61.2" height="15.426666666666677" fill="#dc6555" fill-opacity="0.85"/>
<text x="411.6" y="364.5733333333333" fill="#8a8a8a" font-size="9" text-anchor="middle">130</text>
<rect x="444.20000000000005" y="381.62666666666667" width="61.2" height="2.373333333333335" fill="#dc6555" fill-opacity="0.85"/>
<text x="474.80000000000007" y="377.62666666666667" fill="#8a8a8a" font-size="9" text-anchor="middle">20</text>
<rect x="507.40000000000003" y="382.69466666666665" width="61.2" height="1.3053333333333512" fill="#dc6555" fill-opacity="0.85"/>
<text x="538" y="378.69466666666665" fill="#8a8a8a" font-size="9" text-anchor="middle">11</text>
<rect x="570.6" y="382.932" width="61.2" height="1.0679999999999836" fill="#dc6555" fill-opacity="0.85"/>
<text x="601.2" y="378.932" fill="#8a8a8a" font-size="9" text-anchor="middle">9</text>
<rect x="633.8000000000001" y="383.644" width="61.2" height="0.35599999999999454" fill="#dc6555" fill-opacity="0.85"/>
<text x="664.4000000000001" y="379.644" fill="#8a8a8a" font-size="9" text-anchor="middle">3</text>
<text x="95.6" y="398" fill="#8a8a8a" font-size="10" text-anchor="middle">0</text>
<text x="158.8" y="398" fill="#8a8a8a" font-size="10" text-anchor="middle">1</text>
<text x="222" y="398" fill="#8a8a8a" font-size="10" text-anchor="middle">2-3</text>
<text x="285.20000000000005" y="398" fill="#8a8a8a" font-size="10" text-anchor="middle">4-7</text>
<text x="348.40000000000003" y="398" fill="#8a8a8a" font-size="10" text-anchor="middle">8-15</text>
<text x="411.6" y="398" fill="#8a8a8a" font-size="10" text-anchor="middle">16-31</text>
<text x="474.80000000000007" y="398" fill="#8a8a8a" font-size="10" text-anchor="middle">32-63</text>
<text x="538" y="398" fill="#8a8a8a" font-size="10" text-anchor="middle">64-127</text>
<text x="601.2" y="398" fill="#8a8a8a" font-size="10" text-anchor="middle">128-255</text>
<text x="664.4000000000001" y="398" fill="#8a8a8a" font-size="10" text-anchor="middle">256-511</text>
<text x="380" y="426" fill="#8a8a8a" font-size="11" text-anchor="middle" >degree (Ca + Ce)</text>
<text x="-206" y="16" fill="#8a8a8a" font-size="11" text-anchor="middle" transform="rotate(-90)">module count</text>
</svg>