<svg xmlns="http://www.w3.org/2000/svg" viewBox="0 0 720 440" width="720" height="440" font-family="ui-sans-serif,system-ui,-apple-system,Segoe UI,sans-serif">
<rect width="720" height="440" fill="#0f0f0f"/>
<text x="360" y="18" fill="#d4d4d4" font-size="13" font-weight="600" text-anchor="middle">Node-degree distribution · refine</text>
<line x1="64" y1="384" x2="696" y2="384" stroke="#3a3a3a" stroke-width="1"/>
<line x1="64" y1="28" x2="64" y2="384" stroke="#3a3a3a" stroke-width="1"/>
<line x1="60" y1="384" x2="64" y2="384" stroke="#3a3a3a"/>
<text x="56" y="388" fill="#8a8a8a" font-size="10" text-anchor="end">0</text>
<line x1="64" y1="384" x2="696" y2="384" stroke="#3a3a3a" stroke-opacity="0.3"/>
<line x1="60" y1="312.8" x2="64" y2="312.8" stroke="#3a3a3a"/>
<text x="56" y="316.8" fill="#8a8a8a" font-size="10" text-anchor="end">600</text>
<line x1="64" y1="312.8" x2="696" y2="312.8" stroke="#3a3a3a" stroke-opacity="0.3"/>
<line x1="60" y1="241.6" x2="64" y2="241.6" stroke="#3a3a3a"/>
<text x="56" y="245.6" fill="#8a8a8a" font-size="10" text-anchor="end">1200</text>
<line x1="64" y1="241.6" x2="696" y2="241.6" stroke="#3a3a3a" stroke-opacity="0.3"/>
<line x1="60" y1="170.4" x2="64" y2="170.4" stroke="#3a3a3a"/>
<text x="56" y="174.4" fill="#8a8a8a" font-size="10" text-anchor="end">1800</text>
<line x1="64" y1="170.4" x2="696" y2="170.4" stroke="#3a3a3a" stroke-opacity="0.3"/>
<line x1="60" y1="99.19999999999999" x2="64" y2="99.19999999999999" stroke="#3a3a3a"/>
<text x="56" y="103.19999999999999" fill="#8a8a8a" font-size="10" text-anchor="end">2400</text>
<line x1="64" y1="99.19999999999999" x2="696" y2="99.19999999999999" stroke="#3a3a3a" stroke-opacity="0.3"/>
<line x1="60" y1="28" x2="64" y2="28" stroke="#3a3a3a"/>
<text x="56" y="32" fill="#8a8a8a" font-size="10" text-anchor="end">3000</text>
<line x1="64" y1="28" x2="696" y2="28" stroke="#3a3a3a" stroke-opacity="0.3"/>
<rect x="65" y="246.228" width="77" height="137.772" fill="#e0a955" fill-opacity="0.85"/>
<text x="103.5" y="242.228" fill="#8a8a8a" font-size="9" text-anchor="middle">1161</text>
<rect x="144" y="82.34933333333333" width="77" height="301.65066666666667" fill="#e0a955" fill-opacity="0.85"/>
<text x="182.5" y="78.34933333333333" fill="#8a8a8a" font-size="9" text-anchor="middle">2542</text>
<rect x="223" y="181.31733333333332" width="77" height="202.68266666666668" fill="#e0a955" fill-opacity="0.85"/>
<text x="261.5" y="177.31733333333332" fill="#8a8a8a" font-size="9" text-anchor="middle">1708</text>
<rect x="302" y="296.18666666666667" width="77" height="87.81333333333333" fill="#e0a955" fill-opacity="0.85"/>
<text x="340.5" y="292.18666666666667" fill="#8a8a8a" font-size="9" text-anchor="middle">740</text>
<rect x="381" y="362.52133333333336" width="77" height="21.47866666666664" fill="#e0a955" fill-opacity="0.85"/>
<text x="419.5" y="358.52133333333336" fill="#8a8a8a" font-size="9" text-anchor="middle">181</text>
<rect x="460" y="379.9653333333333" width="77" height="4.034666666666681" fill="#e0a955" fill-opacity="0.85"/>
<text x="498.5" y="375.9653333333333" fill="#8a8a8a" font-size="9" text-anchor="middle">34</text>
<rect x="539" y="383.288" width="77" height="0.7119999999999891" fill="#e0a955" fill-opacity="0.85"/>
<text x="577.5" y="379.288" fill="#8a8a8a" font-size="9" text-anchor="middle">6</text>
<rect x="618" y="383.5253333333333" width="77" height="0.47466666666667834" fill="#e0a955" fill-opacity="0.85"/>
<text x="656.5" y="379.5253333333333" fill="#8a8a8a" font-size="9" text-anchor="middle">4</text>
<text x="103.5" y="398" fill="#8a8a8a" font-size="10" text-anchor="middle">0</text>
<text x="182.5" y="398" fill="#8a8a8a" font-size="10" text-anchor="middle">1</text>
<text x="261.5" y="398" fill="#8a8a8a" font-size="10" text-anchor="middle">2-3</text>
<text x="340.5" y="398" fill="#8a8a8a" font-size="10" text-anchor="middle">4-7</text>
<text x="419.5" y="398" fill="#8a8a8a" font-size="10" text-anchor="middle">8-15</text>
<text x="498.5" y="398" fill="#8a8a8a" font-size="10" text-anchor="middle">16-31</text>
<text x="577.5" y="398" fill="#8a8a8a" font-size="10" text-anchor="middle">32-63</text>
<text x="656.5" y="398" fill="#8a8a8a" font-size="10" text-anchor="middle">64-127</text>
<text x="380" y="426" fill="#8a8a8a" font-size="11" text-anchor="middle" >degree (Ca + Ce)</text>
<text x="-206" y="16" fill="#8a8a8a" font-size="11" text-anchor="middle" transform="rotate(-90)">module count</text>
</svg>