<svg xmlns="http://www.w3.org/2000/svg" viewBox="0 0 720 440" width="720" height="440" font-family="ui-sans-serif,system-ui,-apple-system,Segoe UI,sans-serif">
<rect width="720" height="440" fill="#0f0f0f"/>
<text x="360" y="18" fill="#d4d4d4" font-size="13" font-weight="600" text-anchor="middle">Node-degree distribution · drizzle-orm</text>
<line x1="64" y1="384" x2="696" y2="384" stroke="#3a3a3a" stroke-width="1"/>
<line x1="64" y1="28" x2="64" y2="384" stroke="#3a3a3a" stroke-width="1"/>
<line x1="60" y1="384" x2="64" y2="384" stroke="#3a3a3a"/>
<text x="56" y="388" fill="#8a8a8a" font-size="10" text-anchor="end">0</text>
<line x1="64" y1="384" x2="696" y2="384" stroke="#3a3a3a" stroke-opacity="0.3"/>
<line x1="60" y1="312.8" x2="64" y2="312.8" stroke="#3a3a3a"/>
<text x="56" y="316.8" fill="#8a8a8a" font-size="10" text-anchor="end">60</text>
<line x1="64" y1="312.8" x2="696" y2="312.8" stroke="#3a3a3a" stroke-opacity="0.3"/>
<line x1="60" y1="241.6" x2="64" y2="241.6" stroke="#3a3a3a"/>
<text x="56" y="245.6" fill="#8a8a8a" font-size="10" text-anchor="end">120</text>
<line x1="64" y1="241.6" x2="696" y2="241.6" stroke="#3a3a3a" stroke-opacity="0.3"/>
<line x1="60" y1="170.4" x2="64" y2="170.4" stroke="#3a3a3a"/>
<text x="56" y="174.4" fill="#8a8a8a" font-size="10" text-anchor="end">180</text>
<line x1="64" y1="170.4" x2="696" y2="170.4" stroke="#3a3a3a" stroke-opacity="0.3"/>
<line x1="60" y1="99.19999999999999" x2="64" y2="99.19999999999999" stroke="#3a3a3a"/>
<text x="56" y="103.19999999999999" fill="#8a8a8a" font-size="10" text-anchor="end">240</text>
<line x1="64" y1="99.19999999999999" x2="696" y2="99.19999999999999" stroke="#3a3a3a" stroke-opacity="0.3"/>
<line x1="60" y1="28" x2="64" y2="28" stroke="#3a3a3a"/>
<text x="56" y="32" fill="#8a8a8a" font-size="10" text-anchor="end">300</text>
<line x1="64" y1="28" x2="696" y2="28" stroke="#3a3a3a" stroke-opacity="0.3"/>
<rect x="65" y="277.2" width="61.2" height="106.80000000000001" fill="#5cb573" fill-opacity="0.85"/>
<text x="95.6" y="273.2" fill="#8a8a8a" font-size="9" text-anchor="middle">90</text>
<rect x="128.2" y="216.68" width="61.2" height="167.32" fill="#5cb573" fill-opacity="0.85"/>
<text x="158.8" y="212.68" fill="#8a8a8a" font-size="9" text-anchor="middle">141</text>
<rect x="191.4" y="183.45333333333335" width="61.2" height="200.54666666666665" fill="#5cb573" fill-opacity="0.85"/>
<text x="222" y="179.45333333333335" fill="#8a8a8a" font-size="9" text-anchor="middle">169</text>
<rect x="254.60000000000002" y="140.73333333333332" width="61.2" height="243.26666666666668" fill="#5cb573" fill-opacity="0.85"/>
<text x="285.20000000000005" y="136.73333333333332" fill="#8a8a8a" font-size="9" text-anchor="middle">205</text>
<rect x="317.8" y="118.18666666666667" width="61.2" height="265.81333333333333" fill="#5cb573" fill-opacity="0.85"/>
<text x="348.40000000000003" y="114.18666666666667" fill="#8a8a8a" font-size="9" text-anchor="middle">224</text>
<rect x="381" y="299.74666666666667" width="61.2" height="84.25333333333333" fill="#5cb573" fill-opacity="0.85"/>
<text x="411.6" y="295.74666666666667" fill="#8a8a8a" font-size="9" text-anchor="middle">71</text>
<rect x="444.20000000000005" y="342.4666666666667" width="61.2" height="41.5333333333333" fill="#5cb573" fill-opacity="0.85"/>
<text x="474.80000000000007" y="338.4666666666667" fill="#8a8a8a" font-size="9" text-anchor="middle">35</text>
<rect x="507.40000000000003" y="380.44" width="61.2" height="3.5600000000000023" fill="#5cb573" fill-opacity="0.85"/>
<text x="538" y="376.44" fill="#8a8a8a" font-size="9" text-anchor="middle">3</text>
<rect x="570.6" y="379.25333333333333" width="61.2" height="4.74666666666667" fill="#5cb573" fill-opacity="0.85"/>
<text x="601.2" y="375.25333333333333" fill="#8a8a8a" font-size="9" text-anchor="middle">4</text>
<rect x="633.8000000000001" y="382.81333333333333" width="61.2" height="1.1866666666666674" fill="#5cb573" fill-opacity="0.85"/>
<text x="664.4000000000001" y="378.81333333333333" fill="#8a8a8a" font-size="9" text-anchor="middle">1</text>
<text x="95.6" y="398" fill="#8a8a8a" font-size="10" text-anchor="middle">0</text>
<text x="158.8" y="398" fill="#8a8a8a" font-size="10" text-anchor="middle">1</text>
<text x="222" y="398" fill="#8a8a8a" font-size="10" text-anchor="middle">2-3</text>
<text x="285.20000000000005" y="398" fill="#8a8a8a" font-size="10" text-anchor="middle">4-7</text>
<text x="348.40000000000003" y="398" fill="#8a8a8a" font-size="10" text-anchor="middle">8-15</text>
<text x="411.6" y="398" fill="#8a8a8a" font-size="10" text-anchor="middle">16-31</text>
<text x="474.80000000000007" y="398" fill="#8a8a8a" font-size="10" text-anchor="middle">32-63</text>
<text x="538" y="398" fill="#8a8a8a" font-size="10" text-anchor="middle">64-127</text>
<text x="601.2" y="398" fill="#8a8a8a" font-size="10" text-anchor="middle">128-255</text>
<text x="664.4000000000001" y="398" fill="#8a8a8a" font-size="10" text-anchor="middle">256-511</text>
<text x="380" y="426" fill="#8a8a8a" font-size="11" text-anchor="middle" >degree (Ca + Ce)</text>
<text x="-206" y="16" fill="#8a8a8a" font-size="11" text-anchor="middle" transform="rotate(-90)">module count</text>
</svg>