<svg xmlns="http://www.w3.org/2000/svg" width="720" height="440" font-family="ui-sans-serif,system-ui,-apple-system,Segoe UI,sans-serif" viewBox="0 0 720 440"><rect width="720" height="440" fill="#0f0f0f"/><text x="360" y="18" fill="#d4d4d4" font-size="13" font-weight="600" text-anchor="middle">Node-degree distribution · react-email</text><line x1="64" x2="696" y1="384" y2="384" stroke="#3a3a3a" stroke-width="1"/><line x1="64" x2="64" y1="28" y2="384" stroke="#3a3a3a" stroke-width="1"/><line x1="60" x2="64" y1="384" y2="384" stroke="#3a3a3a"/><text x="56" y="388" fill="#8a8a8a" font-size="10" text-anchor="end">0</text><line x1="64" x2="696" y1="384" y2="384" stroke="#3a3a3a" stroke-opacity=".3"/><line x1="60" x2="64" y1="312.8" y2="312.8" stroke="#3a3a3a"/><text x="56" y="316.8" fill="#8a8a8a" font-size="10" text-anchor="end">80</text><line x1="64" x2="696" y1="312.8" y2="312.8" stroke="#3a3a3a" stroke-opacity=".3"/><line x1="60" x2="64" y1="241.6" y2="241.6" stroke="#3a3a3a"/><text x="56" y="245.6" fill="#8a8a8a" font-size="10" text-anchor="end">160</text><line x1="64" x2="696" y1="241.6" y2="241.6" stroke="#3a3a3a" stroke-opacity=".3"/><line x1="60" x2="64" y1="170.4" y2="170.4" stroke="#3a3a3a"/><text x="56" y="174.4" fill="#8a8a8a" font-size="10" text-anchor="end">240</text><line x1="64" x2="696" y1="170.4" y2="170.4" stroke="#3a3a3a" stroke-opacity=".3"/><line x1="60" x2="64" y1="99.2" y2="99.2" stroke="#3a3a3a"/><text x="56" y="103.2" fill="#8a8a8a" font-size="10" text-anchor="end">320</text><line x1="64" x2="696" y1="99.2" y2="99.2" stroke="#3a3a3a" stroke-opacity=".3"/><line x1="60" x2="64" y1="28" y2="28" stroke="#3a3a3a"/><text x="56" y="32" fill="#8a8a8a" font-size="10" text-anchor="end">400</text><line x1="64" x2="696" y1="28" y2="28" stroke="#3a3a3a" stroke-opacity=".3"/><rect width="68.222" height="109.47" x="65" y="274.53" fill="#5cb573" fill-opacity=".85"/><text x="99.111" y="270.53" fill="#8a8a8a" font-size="9" text-anchor="middle">123</text><rect width="68.222" height="318.62" x="135.222" y="65.38" fill="#5cb573" fill-opacity=".85"/><text x="169.333" y="61.38" fill="#8a8a8a" font-size="9" text-anchor="middle">358</text><rect width="68.222" height="309.72" x="205.444" y="74.28" fill="#5cb573" fill-opacity=".85"/><text x="239.556" y="70.28" fill="#8a8a8a" font-size="9" text-anchor="middle">348</text><rect width="68.222" height="155.75" x="275.667" y="228.25" fill="#5cb573" fill-opacity=".85"/><text x="309.778" y="224.25" fill="#8a8a8a" font-size="9" text-anchor="middle">175</text><rect width="68.222" height="52.51" x="345.889" y="331.49" fill="#5cb573" fill-opacity=".85"/><text x="380" y="327.49" fill="#8a8a8a" font-size="9" text-anchor="middle">59</text><rect width="68.222" height="18.69" x="416.111" y="365.31" fill="#5cb573" fill-opacity=".85"/><text x="450.222" y="361.31" fill="#8a8a8a" font-size="9" text-anchor="middle">21</text><rect width="68.222" height="2.67" x="486.333" y="381.33" fill="#5cb573" fill-opacity=".85"/><text x="520.444" y="377.33" fill="#8a8a8a" font-size="9" text-anchor="middle">3</text><rect width="68.222" height=".89" x="556.556" y="383.11" fill="#5cb573" fill-opacity=".85"/><text x="590.667" y="379.11" fill="#8a8a8a" font-size="9" text-anchor="middle">1</text><rect width="68.222" height=".89" x="626.778" y="383.11" fill="#5cb573" fill-opacity=".85"/><text x="660.889" y="379.11" fill="#8a8a8a" font-size="9" text-anchor="middle">1</text><text x="99.111" y="398" fill="#8a8a8a" font-size="10" text-anchor="middle">0</text><text x="169.333" y="398" fill="#8a8a8a" font-size="10" text-anchor="middle">1</text><text x="239.556" y="398" fill="#8a8a8a" font-size="10" text-anchor="middle">2-3</text><text x="309.778" y="398" fill="#8a8a8a" font-size="10" text-anchor="middle">4-7</text><text x="380" y="398" fill="#8a8a8a" font-size="10" text-anchor="middle">8-15</text><text x="450.222" y="398" fill="#8a8a8a" font-size="10" text-anchor="middle">16-31</text><text x="520.444" y="398" fill="#8a8a8a" font-size="10" text-anchor="middle">32-63</text><text x="590.667" y="398" fill="#8a8a8a" font-size="10" text-anchor="middle">64-127</text><text x="660.889" y="398" fill="#8a8a8a" font-size="10" text-anchor="middle">128-255</text><text x="380" y="426" fill="#8a8a8a" font-size="11" text-anchor="middle">degree (Ca + Ce)</text><text x="-206" y="16" fill="#8a8a8a" font-size="11" text-anchor="middle" transform="rotate(-90)">module count</text></svg>